<svg width="32" height="32" viewBox="0 0 32 32" fill="none" xmlns="http://www.w3.org/2000/svg">
<path fill-rule="evenodd" clip-rule="evenodd" d="M20 4C20 1.79086 18.2091 0 16 0C13.7909 0 12 1.79086 12 4C12 4.34557 12.0438 4.68091 12.1262 5.00076L11 5L10.8834 5.00673C10.386 5.06449 10 5.48716 10 6L10.0006 7.4641C5.8405 9.63204 3 13.9843 3 19C3 26.1797 8.8203 32 16 32C23.1797 32 29 26.1797 29 19C29 13.9847 26.16 9.63274 22.0004 7.46462L22 6L21.9933 5.88338C21.9355 5.38604 21.5128 5 21 5L19.8738 5.00076C19.9562 4.68091 20 4.34557 20 4ZM26.3739 22.5416L26.4292 22.5069C24.9652 26.8625 20.849 30 16 30C11.151 30 7.03484 26.8625 5.56954 22.5068C8.25936 24.1747 11.7442 25 16 25C20.226 25 23.6919 24.1862 26.3739 22.5416ZM26.8581 17.2284L26.7638 17.2928C24.0293 19.105 20.4336 20 16 20C11.5153 20 7.88738 19.084 5.14214 17.2299C5.04843 17.8065 5 18.3976 5 19C5 19.1969 5.00517 19.3926 5.01539 19.587C7.47347 21.8511 11.1193 23 16 23C20.8807 23 24.5265 21.8511 26.9855 19.5878C26.9948 19.3926 27 19.1969 27 19C27 18.3969 26.9515 17.8051 26.8581 17.2284ZM10.3753 8.78087L10.9883 9.24334C12.6273 10.4057 14.3017 11 16 11C17.7091 11 19.3938 10.3982 21.0424 9.22123C23.4576 10.4691 25.3512 12.5855 26.3103 15.1584C23.8788 17.043 20.4523 18 16 18C11.5476 18 8.1219 17.0433 5.68987 15.1572C6.64891 12.5853 8.54283 10.4689 10.9582 9.22198C10.7634 9.08296 10.5691 8.93591 10.3753 8.78087ZM12 7V7.505L12.1849 7.64009C13.301 8.4243 14.3921 8.86327 15.465 8.97268L15.7329 8.99318L16 9C17.1559 9 18.3319 8.61631 19.5366 7.82896L19.8151 7.64009L20 7.505V7H12ZM14 4C14 2.89543 14.8954 2 16 2C17.1046 2 18 2.89543 18 4C18 4.30394 17.9322 4.59205 17.8109 4.85002L17.732 5L14.2676 5.0001C14.0974 4.70591 14 4.36433 14 4Z" fill="#7e681e"/>
</svg>
