<svg width="32" height="32" viewBox="0 0 32 32" fill="none" xmlns="http://www.w3.org/2000/svg">
<path fill-rule="evenodd" clip-rule="evenodd" d="M27.9305 0.62894L27.8791 0.519433C27.5753 -0.038835 26.8151 -0.181253 26.3293 0.260391L19.1048 6.82901L18.913 6.70003C18.2161 6.25696 17.389 6.00033 16.502 6.00033H15.502L15.2362 6.00805C14.3681 6.05861 13.5661 6.35525 12.8989 6.82925L5.67366 0.260391C5.15749 -0.208856 4.33159 -0.0187513 4.07251 0.62894L0.0725095 10.6289C-0.190236 11.2858 0.293522 12.0003 1.00099 12.0003L1.337 12L4.45471 19.3887L4.50955 19.4996C4.81246 20.0284 5.53149 20.1712 6.01528 19.7691L10.935 15.68L3.11709 30.5346L3.07131 30.633L3.03695 30.7317C2.80665 31.5205 3.62952 32.2843 4.43107 31.9036L9.81101 29.3473L12.3133 31.7253L12.4031 31.8016C12.9585 32.2205 13.7857 31.9515 13.9691 31.2548L15.9996 23.5362L18.0311 31.2548C18.2246 31.9902 19.1356 32.2491 19.6869 31.7253L22.1892 29.3473L27.5691 31.9036C28.4041 32.3002 29.2622 31.4549 28.9289 30.633L28.8831 30.5346L21.061 15.674L25.9878 19.7691C26.5039 20.198 27.2875 20.007 27.5484 19.3887L30.665 12L31.002 12.0003L31.1178 11.9938C31.7609 11.9211 32.1786 11.2493 31.9305 10.6289L27.9305 0.62894ZM14.9656 19.6052L12.464 29.1103L10.6908 27.4253L10.5857 27.3383L10.4718 27.2675C10.1969 27.1212 9.86354 27.109 9.57296 27.2471L6.28501 28.8073L13.6856 14.7442L14.9656 19.6052ZM15.8215 15.0003L19.5362 29.1103L21.3094 27.4253L21.4144 27.3383C21.7072 27.1278 22.0951 27.0893 22.4272 27.2471L25.7152 28.8073L18.2601 14.644C17.7981 14.8402 17.2966 14.9615 16.7708 14.9924L16.502 15.0003L15.8215 15.0003ZM11.2583 12.001L11.3286 12.1866C11.3852 12.3265 11.4486 12.4628 11.5181 12.5948L5.77408 17.369L3.50908 12L11.2583 12.001ZM20.7459 12.0004C20.6976 12.137 20.6429 12.2706 20.5822 12.4008L20.4854 12.5958L26.229 17.369L28.494 12L20.7459 12.0004ZM15.502 8.00033H16.502L16.6664 8.00565C17.9705 8.09029 19.002 9.17485 19.002 10.5003C19.002 11.881 17.8827 13.0003 16.502 13.0003H15.502L15.3376 12.995C14.0335 12.9104 13.002 11.8258 13.002 10.5003C13.002 9.11962 14.1213 8.00033 15.502 8.00033ZM5.39499 2.70833L2.47799 10.0003L11.0295 10C11.0858 9.49125 11.2269 9.00805 11.4383 8.56488L11.565 8.31911L5.39499 2.70833ZM20.4384 8.3181L26.608 2.70833L29.525 10.0003L20.9745 9.99962L20.9387 9.74403C20.8525 9.23449 20.6806 8.75407 20.4384 8.3181ZM20.3962 8.24373C20.4105 8.26837 20.4246 8.29317 20.4384 8.3181L20.3962 8.24373Z" fill="#7e681e"/>
</svg>
