<svg width="32" height="32" viewBox="0 0 32 32" fill="none" xmlns="http://www.w3.org/2000/svg">
<path fill-rule="evenodd" clip-rule="evenodd" d="M15.2587 0.331035C15.6276 -0.0788179 16.2507 -0.108093 16.6559 0.24321L16.7453 0.331035L25.7453 10.331C26.2993 10.9466 25.9055 11.9116 25.1125 11.9943L25.002 12H23.417L28.7091 17.2929C29.2843 17.8681 28.9623 18.8161 28.2239 18.9766L28.1156 18.994L28.002 19H25.81L31.7315 25.3161C32.277 25.8979 31.9497 26.8171 31.2253 26.9762L31.1137 26.9942L31.002 27L18.221 26.999L18.9826 30.8039C19.0986 31.384 18.6899 31.9277 18.1183 31.9934L18.002 32H14.002C13.4104 32 12.9574 31.4926 13.0051 30.9193L13.0214 30.8039L13.782 26.999L1.00198 27C0.164606 27 -0.286127 26.0436 0.20026 25.4016L0.272446 25.3161L6.19298 19H4.00198C3.18855 19 2.74587 18.102 3.15453 17.4664L3.21876 17.3775L3.29488 17.2929L8.58598 12H7.00198C6.21329 12 5.76408 11.149 6.12819 10.511L6.18897 10.417L6.25869 10.331L15.2587 0.331035ZM16.182 27H15.821L15.221 30H16.782L16.182 27ZM9.24598 10L16.002 2.494L22.757 10H21.002L20.8884 10.006L20.7801 10.0234C20.0416 10.1839 19.7197 11.1319 20.2949 11.7071L25.587 17H23.502L23.3902 17.0058L23.2787 17.0238C22.5542 17.1829 22.227 18.1021 22.7724 18.6839L28.694 25H3.30898L9.23152 18.6839L9.30371 18.5984L9.36427 18.5091C9.74832 17.8714 9.3013 17 8.50198 17H6.41598L11.7091 11.7071L11.7852 11.6225L11.8494 11.5336C12.2581 10.898 11.8154 10 11.002 10H9.24598Z" fill="#7E681E"/>
</svg>
