<svg width="48" height="48" viewBox="0 0 37 36" fill="none" xmlns="http://www.w3.org/2000/svg">
<g clip-path="url(#clip0_4017_1419)">
<path d="M18.0017 21.0676C20.9783 21.0676 23.3914 18.6545 23.3914 15.6779C23.3914 12.7013 20.9783 10.2883 18.0017 10.2883C15.0251 10.2883 12.6121 12.7013 12.6121 15.6779C12.6121 18.6545 15.0251 21.0676 18.0017 21.0676Z" stroke="#E7CD78" stroke-width="3" stroke-linecap="round" stroke-linejoin="round"/>
<path d="M31.8461 6.4615V29.5384C31.8461 29.8415 31.7865 30.1416 31.6705 30.4215C31.5545 30.7015 31.3845 30.9559 31.1702 31.1702C30.956 31.3845 30.7016 31.5545 30.4216 31.6704C30.1416 31.7864 29.8415 31.8461 29.5385 31.8461H26.7577V29.325C26.7578 28.2408 26.5444 27.1671 26.1296 26.1654C25.7147 25.1637 25.1066 24.2536 24.34 23.4869C23.5733 22.7203 22.6631 22.1122 21.6614 21.6973C20.6597 21.2825 19.5861 21.069 18.5019 21.0692H17.4981C16.4139 21.069 15.3402 21.2825 14.3385 21.6973C13.3368 22.1122 12.4267 22.7203 11.66 23.4869C10.8934 24.2536 10.2853 25.1637 9.87043 26.1654C9.45559 27.1671 9.24215 28.2408 9.2423 29.325V31.8461H6.46153C5.84949 31.8461 5.26252 31.603 4.82974 31.1702C4.39697 30.7374 4.15384 30.1505 4.15384 29.5384V6.4615C4.15384 5.84946 4.39697 5.26249 4.82974 4.82971C5.26252 4.39694 5.84949 4.15381 6.46153 4.15381H29.5385C30.1505 4.15381 30.7375 4.39694 31.1702 4.82971C31.603 5.26249 31.8461 5.84946 31.8461 6.4615Z" stroke="#E7CD78" stroke-width="3" stroke-linecap="round" stroke-linejoin="round"/>
</g>
<defs>
<clipPath id="clip0_4017_1419">
<rect width="30" height="30" fill="white" transform="translate(3 3)"/>
</clipPath>
</defs>
</svg>
