<svg width="37" height="36" viewBox="0 0 37 36" fill="none" xmlns="http://www.w3.org/2000/svg">
<path d="M15.1561 18C19.2878 18 22.6372 14.6421 22.6372 10.5C22.6372 6.35786 19.2878 3 15.1561 3C11.0244 3 7.67505 6.35786 7.67505 10.5C7.67505 14.6421 11.0244 18 15.1561 18Z" stroke="#E7CD78" stroke-width="3" stroke-linecap="round" stroke-linejoin="round"/>
<path d="M23.9029 21.3154C21.7631 19.1846 18.8676 17.9918 15.8517 17.9986H14.4606C11.421 17.9986 8.50599 19.2091 6.35672 21.3638C4.20745 23.5185 3 26.4409 3 29.4881V33H27.3122V32.4508" stroke="#E7CD78" stroke-width="3" stroke-linecap="round" stroke-linejoin="round"/>
<path d="M27.2337 25.7009L28.4648 26.9344C28.5555 27.0255 28.6632 27.0977 28.7817 27.1471C28.9003 27.1964 29.0273 27.2217 29.1557 27.2217C29.284 27.2217 29.4111 27.1964 29.5297 27.1471C29.6482 27.0977 29.7559 27.0255 29.8466 26.9344L33 23.7737" stroke="#E7CD78" stroke-width="3" stroke-linecap="round" stroke-linejoin="round"/>
</svg>
