<svg width="37" height="36" viewBox="0 0 37 36" fill="none" xmlns="http://www.w3.org/2000/svg">
<g clip-path="url(#clip0_4013_1635)">
<path d="M15.7333 18.0023C19.6032 18.0023 22.7403 14.9391 22.7403 11.1604C22.7403 7.38166 19.6032 4.31842 15.7333 4.31842C11.8635 4.31842 8.72632 7.38166 8.72632 11.1604C8.72632 14.9391 11.8635 18.0023 15.7333 18.0023Z" stroke="#E7CD78" stroke-width="3" stroke-linecap="round" stroke-linejoin="round"/>
<path d="M23.9258 21.0287C21.9193 19.0857 19.2067 17.9972 16.3807 18.001H15.0818C12.2349 18.001 9.50461 19.1053 7.49154 21.0709C5.47847 23.0366 4.34753 25.7026 4.34753 28.4824V31.6796H27.1123V31.1852" stroke="#E7CD78" stroke-width="3" stroke-linecap="round" stroke-linejoin="round"/>
<path d="M27.8414 22.9833L31.6497 26.7012" stroke="#E7CD78" stroke-width="3" stroke-linecap="round" stroke-linejoin="round"/>
<path d="M31.6497 22.9833L27.8414 26.7012" stroke="#E7CD78" stroke-width="3" stroke-linecap="round" stroke-linejoin="round"/>
</g>
<defs>
<clipPath id="clip0_4013_1635">
<rect width="30" height="30" fill="white" transform="translate(3 3)"/>
</clipPath>
</defs>
</svg>
