<svg width="334" height="264" viewBox="0 0 334 264" fill="none" xmlns="http://www.w3.org/2000/svg">
<path d="M15.9285 91.152C12.3445 91.152 9.5285 90.4267 7.4805 88.976C5.51783 87.5253 4.10983 85.6053 3.2565 83.216C2.4885 80.8267 2.1045 78.224 2.1045 75.408C2.1045 71.312 3.1285 66.8747 5.1765 62.096C7.30983 57.232 10.2112 52.4533 13.8805 47.76C17.6352 43.0667 21.9872 38.8 26.9365 34.96C31.9712 31.12 37.4325 28.048 43.3205 25.744C49.2085 23.3547 55.2672 22.16 61.4965 22.16C65.0805 22.16 67.8112 22.8 69.6885 24.08C71.6512 25.36 72.9738 26.9813 73.6565 28.944C74.3392 30.8213 74.4672 32.8267 74.0405 34.96C73.6992 37.008 72.9312 38.8853 71.7365 40.592C71.3952 41.1893 70.9685 41.488 70.4565 41.488C70.0298 41.488 70.0725 41.104 70.5845 40.336C71.6085 38.8 72.2485 37.0507 72.5045 35.088C72.8458 33.1253 72.7178 31.2907 72.1205 29.584C71.6085 27.792 70.4992 26.3413 68.7925 25.232C67.1712 24.0373 64.8672 23.44 61.8805 23.44C57.8698 23.44 53.6885 24.3787 49.3365 26.256C45.0698 28.048 40.8032 30.5227 36.5365 33.68C32.3552 36.752 28.3872 40.2507 24.6325 44.176C20.9632 48.1013 17.6778 52.1973 14.7765 56.464C11.8752 60.7307 9.61383 64.912 7.9925 69.008C6.37117 73.104 5.5605 76.9013 5.5605 80.4C5.5605 81.2533 5.8165 82.448 6.3285 83.984C6.92583 85.52 8.03517 86.928 9.6565 88.208C11.2778 89.4027 13.6245 90 16.6965 90C19.8538 90 23.3525 89.1467 27.1925 87.44C31.0325 85.7333 34.9152 83.3867 38.8405 80.4C42.7658 77.4133 46.3498 74.0427 49.5925 70.288C52.8352 66.448 55.4378 62.4373 57.4005 58.256C59.4485 54.0747 60.4725 49.936 60.4725 45.84C60.4725 42.9387 59.7898 40.8053 58.4245 39.44C57.1445 37.9893 55.1392 37.264 52.4085 37.264C48.4832 37.264 44.7712 38.3307 41.2725 40.464C37.8592 42.512 34.7872 45.2427 32.0565 48.656C29.3258 51.984 27.1925 55.6107 25.6565 59.536C24.1205 63.4613 23.3098 67.2587 23.2245 70.928C23.1392 74.5973 23.9925 77.7973 25.7845 80.528C26.0405 80.8693 26.0405 81.168 25.7845 81.424C25.6138 81.5947 25.3152 81.4667 24.8885 81.04C22.8405 78.6507 21.7312 75.6213 21.5605 71.952C21.4752 68.1973 22.1578 64.2293 23.6085 60.048C25.0592 55.8667 27.1925 51.9413 30.0085 48.272C32.8245 44.6027 36.1952 41.616 40.1205 39.312C44.0458 36.9227 48.3552 35.728 53.0485 35.728C55.8645 35.728 58.2112 36.6667 60.0885 38.544C61.9658 40.4213 62.9045 43.1093 62.9045 46.608C62.9045 50.6187 61.9658 54.7573 60.0885 59.024C58.2112 63.2053 55.6512 67.216 52.4085 71.056C49.2512 74.896 45.6245 78.352 41.5285 81.424C37.5178 84.4107 33.2938 86.8 28.8565 88.592C24.5045 90.2987 20.1952 91.152 15.9285 91.152ZM59.4665 92.944C56.4798 92.944 54.2185 92.3893 52.6825 91.28C51.1465 90.1707 50.3785 88.6773 50.3785 86.8C50.3785 85.4347 50.8478 84.24 51.7865 83.216C52.6398 82.1067 53.6638 81.2533 54.8585 80.656C56.0532 79.9733 56.9918 79.632 57.6745 79.632C58.6132 79.632 59.2532 79.8453 59.5945 80.272C59.8505 80.6133 59.9785 80.9973 59.9785 81.424C59.9785 82.1067 59.5945 82.6613 58.8265 83.088C57.9732 83.5147 57.2905 83.728 56.7785 83.728C56.1812 83.728 55.6692 83.5573 55.2425 83.216C54.7305 82.7893 54.4745 82.576 54.4745 82.576C54.0478 82.6613 53.4505 83.1307 52.6825 83.984C51.9145 84.8373 51.5305 85.776 51.5305 86.8C51.5305 87.824 52.0852 88.8053 53.1945 89.744C54.3038 90.6827 56.0958 91.152 58.5705 91.152C61.1305 91.152 63.5625 90.2987 65.8665 88.592C68.2558 86.8853 70.2185 84.7093 71.7545 82.064C73.2905 79.4187 74.0585 76.7307 74.0585 74C74.0585 73.0613 74.0585 71.824 74.0585 70.288C74.0585 68.6667 74.0585 67.344 74.0585 66.32C74.0585 65.04 74.2718 63.5893 74.6985 61.968C75.1252 60.2613 75.5945 58.6827 76.1065 57.232C76.7038 55.7813 77.1732 54.8853 77.5145 54.544C78.1972 53.9467 78.7092 53.776 79.0505 54.032C79.3918 54.288 79.4772 54.544 79.3065 54.8C79.2212 54.8853 78.6665 55.568 77.6425 56.848C76.6185 58.0427 75.3385 59.536 73.8025 61.328C72.2665 63.12 70.7305 64.912 69.1945 66.704C67.6585 68.496 66.2932 70.0747 65.0985 71.44C63.9892 72.8053 63.3492 73.616 63.1785 73.872C62.7518 74.4693 62.3678 74.5973 62.0265 74.256C61.6852 73.9147 61.7705 73.488 62.2825 72.976C63.2212 71.7813 64.3732 70.3733 65.7385 68.752C67.1892 67.0453 68.6398 65.3813 70.0905 63.76C71.5412 62.1387 72.7785 60.7733 73.8025 59.664C74.9118 58.4693 75.5092 57.7867 75.5945 57.616C75.8505 57.2747 76.0638 56.6773 76.2345 55.824C76.4905 54.9707 76.7892 54.16 77.1305 53.392C77.5572 52.624 78.0692 52.24 78.6665 52.24C80.1172 52.24 80.8425 52.752 80.8425 53.776C80.8425 54.544 80.2452 55.4827 79.0505 56.592C77.9412 57.7013 77.3012 58.5973 77.1305 59.28C76.8745 60.304 76.8745 61.7547 77.1305 63.632C77.4718 65.424 77.8132 67.472 78.1545 69.776C78.5812 72.08 78.7945 74.512 78.7945 77.072C78.7945 80.4853 78.1118 83.2587 76.7465 85.392C75.3812 87.44 73.6745 89.0187 71.6265 90.128C69.5785 91.2373 67.4452 91.9627 65.2265 92.304C63.0932 92.7307 61.1732 92.944 59.4665 92.944ZM79.1785 84.112C76.9598 84.112 75.5092 83.6853 74.8265 82.832C74.2292 81.9787 74.0158 80.9973 74.1865 79.888C74.4425 78.6933 74.7412 77.6267 75.0825 76.688L76.3625 76.816C76.1065 77.6693 75.8505 78.5653 75.5945 79.504C75.4238 80.4427 75.5518 81.2533 75.9785 81.936C76.4052 82.6187 77.5145 82.96 79.3065 82.96C80.5865 82.96 82.0372 82.3627 83.6585 81.168C85.2798 79.9733 86.8585 78.5227 88.3945 76.816C90.0158 75.1093 91.3812 73.4453 92.4905 71.824L93.6425 72.72C92.5332 74.0853 91.1678 75.664 89.5465 77.456C88.0105 79.248 86.3465 80.8267 84.5545 82.192C82.7625 83.472 80.9705 84.112 79.1785 84.112ZM98.4535 91.152C94.4428 91.152 91.7975 90.256 90.5175 88.464C89.2375 86.5867 88.5975 84.624 88.5975 82.576C88.5975 79.0773 89.4935 75.8347 91.2855 72.848C93.0775 69.776 95.3815 67.0453 98.1975 64.656C101.014 62.2667 103.915 60.432 106.902 59.152C109.974 57.7867 112.704 57.104 115.094 57.104C116.8 57.104 118.166 57.36 119.19 57.872C120.214 58.2987 120.726 59.2373 120.726 60.688C120.726 62.0533 119.915 63.504 118.294 65.04C116.672 66.576 114.624 68.0693 112.15 69.52C109.675 70.8853 107.072 72.1653 104.342 73.36C101.696 74.4693 99.2642 75.3653 97.0455 76.048C94.8268 76.7307 93.2055 77.072 92.1815 77.072C92.1815 77.072 92.1815 76.8587 92.1815 76.432C92.1815 75.92 92.1815 75.664 92.1815 75.664C92.9495 75.7493 94.2722 75.4933 96.1495 74.896C98.1122 74.2987 100.288 73.5307 102.678 72.592C105.067 71.568 107.371 70.416 109.59 69.136C111.894 67.856 113.771 66.4907 115.222 65.04C116.758 63.5893 117.526 62.1813 117.526 60.816C117.526 60.1333 117.312 59.536 116.886 59.024C116.544 58.512 115.904 58.256 114.966 58.256C113.6 58.256 111.936 58.9387 109.974 60.304C108.096 61.584 106.176 63.2907 104.214 65.424C102.251 67.5573 100.416 69.8187 98.7095 72.208C97.0028 74.5973 95.5948 76.9013 94.4855 79.12C93.4615 81.2533 92.9495 83.0453 92.9495 84.496C92.9495 86.2027 93.4615 87.4827 94.4855 88.336C95.5095 89.1893 97.0028 89.616 98.9655 89.616C102.379 89.616 105.579 88.8053 108.566 87.184C111.638 85.4773 114.411 83.5147 116.886 81.296C119.36 78.992 121.451 76.8587 123.158 74.896C124.864 72.848 126.016 71.5253 126.614 70.928C126.614 70.928 126.742 71.056 126.998 71.312C127.339 71.568 127.51 71.696 127.51 71.696C126.912 72.3787 125.76 73.744 124.054 75.792C122.347 77.84 120.214 80.0587 117.654 82.448C115.094 84.8373 112.192 86.8853 108.95 88.592C105.707 90.2987 102.208 91.152 98.4535 91.152ZM122.984 75.152C124.435 73.872 126.184 71.8667 128.233 69.136C130.281 66.32 132.03 63.2907 133.481 60.048L134.633 61.2C133.011 64.272 131.177 67.1733 129.129 69.904C127.081 72.6347 125.331 74.5973 123.88 75.792C123.795 75.792 123.624 75.7067 123.368 75.536C123.027 75.3653 122.899 75.2373 122.984 75.152ZM136.169 51.344C136.851 51.344 137.491 51.472 138.089 51.728C138.771 51.984 139.113 52.4107 139.113 53.008C139.113 54.288 138.814 55.2267 138.217 55.824C137.619 56.336 137.022 56.8053 136.425 57.232C135.827 57.6587 135.529 58.384 135.529 59.408C135.529 60.7733 136.297 62.352 137.833 64.144C139.369 65.8507 142.142 66.704 146.153 66.704C148.457 66.704 150.803 66.32 153.193 65.552C155.582 64.6987 157.587 63.6747 159.208 62.48C160.83 61.2 161.641 59.9627 161.641 58.768C161.641 58.3413 161.385 57.9573 160.873 57.616C160.446 57.1893 159.721 56.976 158.697 56.976C156.734 56.976 154.985 57.872 153.449 59.664C151.913 61.3707 150.505 63.504 149.225 66.064C148.03 68.624 146.878 71.1413 145.769 73.616C144.659 76.0053 143.55 77.9253 142.441 79.376C139.966 82.5333 137.79 84.9227 135.913 86.544C134.121 88.1653 132.414 89.36 130.793 90.128C129.257 90.9813 127.763 91.7067 126.312 92.304C124.862 92.9867 123.283 93.968 121.576 95.248C121.235 95.504 120.808 95.4613 120.296 95.12C119.699 94.864 119.528 94.608 119.784 94.352C120.126 93.9253 120.936 93.4133 122.216 92.816C123.496 92.2187 124.563 91.664 125.416 91.152C127.379 89.872 129.086 88.208 130.536 86.16C131.987 84.112 133.267 82.0213 134.377 79.888C135.486 77.7547 136.425 75.9627 137.193 74.512C138.729 71.696 140.649 68.88 142.953 66.064C145.257 63.1627 147.731 60.7733 150.377 58.896C153.107 56.9333 155.753 55.952 158.312 55.952C159.763 55.952 160.958 56.208 161.897 56.72C162.835 57.1467 163.305 57.8293 163.305 58.768C163.305 60.1333 162.451 61.4987 160.745 62.864C159.123 64.2293 156.99 65.3813 154.345 66.32C151.785 67.2587 149.054 67.728 146.153 67.728C142.142 67.728 139.113 67.088 137.065 65.808C135.017 64.4427 133.609 62.9493 132.841 61.328C132.158 59.6213 131.817 58.256 131.817 57.232C131.817 55.7813 132.243 54.4587 133.097 53.264C134.035 51.984 135.059 51.344 136.169 51.344ZM161.001 70.928L162.025 71.696C157.075 78.352 152.211 83.7707 147.433 87.952C142.654 92.048 138.217 95.12 134.121 97.168C132.926 97.7653 130.921 98.832 128.105 100.368C125.374 101.904 122.344 103.696 119.016 105.744C115.603 107.792 112.36 109.968 109.288 112.272C106.131 114.661 103.571 117.008 101.608 119.312C99.5605 121.616 98.5365 123.707 98.5365 125.584C98.5365 127.461 99.5178 128.4 101.48 128.4C103.016 128.4 105.022 127.717 107.497 126.352C109.971 124.987 112.574 123.109 115.304 120.72C118.035 118.416 120.638 115.771 123.112 112.784C125.502 109.883 127.465 106.853 129.001 103.696C130.537 100.624 131.305 97.6373 131.305 94.736C131.305 93.2 130.878 92.176 130.025 91.664C129.257 91.2373 128.489 91.024 127.721 91.024C127.806 91.024 127.721 90.9387 127.465 90.768C127.294 90.6827 127.251 90.5547 127.337 90.384C127.507 90.2987 128.062 90.256 129.001 90.256C130.963 90.256 132.627 90.9387 133.993 92.304C135.443 93.6693 136.169 95.9733 136.169 99.216C136.169 101.349 135.401 103.739 133.865 106.384C132.414 109.115 130.451 111.803 127.977 114.448C125.502 117.179 122.771 119.696 119.784 122C116.712 124.304 113.64 126.139 110.568 127.504C107.411 128.955 104.467 129.68 101.736 129.68C98.5792 129.68 97.0005 128.315 97.0005 125.584C97.0005 123.536 98.0672 121.317 100.2 118.928C102.248 116.539 104.894 114.107 108.136 111.632C111.379 109.243 114.75 106.981 118.248 104.848C121.662 102.715 124.776 100.837 127.593 99.216C130.494 97.68 132.542 96.6133 133.737 96.016C137.577 94.0533 141.843 91.0667 146.537 87.056C151.23 83.0453 156.051 77.6693 161.001 70.928Z" fill="#E7CD78"/>
<path d="M173.733 201.974C173.221 202.401 172.752 202.486 172.325 202.23C171.898 202.06 172.069 201.59 172.837 200.822C174.117 199.542 175.312 197.494 176.421 194.678C177.53 191.777 178.725 188.278 180.005 184.182C181.285 180.086 182.821 175.606 184.613 170.742C186.405 165.793 188.581 160.673 191.141 155.382C193.786 150.092 196.944 144.844 200.613 139.638C200.869 139.297 201.168 139.041 201.509 138.87C201.85 138.614 201.978 138.657 201.893 138.998C201.893 139.084 201.04 140.278 199.333 142.582C197.712 144.886 195.45 147.916 192.549 151.67C189.648 155.34 186.32 159.393 182.565 163.83C178.896 168.268 174.97 172.705 170.789 177.142C166.693 181.58 162.554 185.676 158.373 189.43C154.192 193.1 150.181 196.044 146.341 198.262C142.501 200.481 139.088 201.59 136.101 201.59C132.176 201.59 129.488 200.865 128.037 199.414C126.586 197.878 125.861 196.342 125.861 194.806C125.861 193.612 126.373 192.673 127.397 191.99C128.336 191.222 129.232 190.838 130.085 190.838C131.962 190.838 132.901 191.564 132.901 193.014C132.901 193.782 132.645 194.422 132.133 194.934C131.536 195.361 130.81 195.574 129.957 195.574C129.36 195.574 128.848 195.489 128.421 195.318C127.994 195.062 127.781 194.934 127.781 194.934C127.781 196.044 128.336 197.238 129.445 198.518C130.469 199.798 132.432 200.438 135.333 200.438C138.234 200.438 141.562 199.329 145.317 197.11C149.072 194.892 152.997 191.948 157.093 188.278C161.274 184.524 165.456 180.428 169.637 175.99C173.818 171.553 177.786 167.073 181.541 162.55C185.381 157.942 188.794 153.676 191.781 149.75C194.853 145.74 197.37 142.412 199.333 139.766C201.296 137.121 202.448 135.5 202.789 134.902C203.301 134.22 203.77 133.665 204.197 133.238C204.709 132.812 205.05 132.684 205.221 132.854C205.392 133.025 205.178 133.708 204.581 134.902C203.813 136.353 202.832 138.87 201.637 142.454C200.442 145.953 199.034 150.092 197.413 154.87C195.792 159.649 193.914 164.641 191.781 169.846C189.648 175.052 187.216 180.086 184.485 184.95C181.84 189.814 178.853 194.124 175.525 197.878C175.013 198.39 174.8 198.518 174.885 198.262C175.056 197.921 175.354 197.452 175.781 196.854C176.208 196.257 176.549 195.83 176.805 195.574C179.45 193.1 182.565 189.729 186.149 185.462C189.733 181.196 193.658 176.545 197.925 171.51C202.192 166.39 206.672 161.27 211.365 156.15C216.144 151.03 221.008 146.337 225.957 142.07C230.992 137.804 235.984 134.39 240.933 131.83C245.968 129.185 250.874 127.862 255.653 127.862C259.066 127.862 261.541 128.844 263.077 130.806C264.698 132.684 265.509 134.86 265.509 137.334C265.509 139.638 264.741 141.942 263.205 144.246C261.754 146.465 259.92 148.513 257.701 150.39C255.482 152.268 253.306 153.846 251.173 155.126C249.125 156.321 247.504 157.004 246.309 157.174C245.541 157.26 244.986 157.302 244.645 157.302C244.389 157.217 244.688 156.918 245.541 156.406C245.541 156.406 246.352 156.022 247.973 155.254C249.68 154.401 251.642 153.206 253.861 151.67C256.08 150.049 258.042 148.044 259.749 145.654C261.456 143.18 262.309 140.321 262.309 137.078C262.309 136.054 262.096 134.945 261.669 133.75C261.328 132.47 260.645 131.404 259.621 130.55C258.597 129.612 257.104 129.142 255.141 129.142C250.704 129.142 246.053 130.465 241.189 133.11C236.41 135.756 231.546 139.254 226.597 143.606C221.648 147.958 216.741 152.822 211.877 158.198C207.013 163.489 202.277 168.908 197.669 174.454C193.146 179.916 188.837 185.036 184.741 189.814C180.73 194.593 177.061 198.646 173.733 201.974ZM151.205 161.398C146 161.398 142.202 160.033 139.813 157.302C137.509 154.572 136.357 151.372 136.357 147.702C136.357 145.142 137.125 142.625 138.661 140.15C140.282 137.59 142.8 135.5 146.213 133.878C149.626 132.172 154.064 131.318 159.525 131.318C162.938 131.318 166.01 131.788 168.741 132.726C171.472 133.58 173.904 134.561 176.037 135.67C178.256 136.78 180.346 137.804 182.309 138.742C184.272 139.596 186.192 140.022 188.069 140.022C189.946 140.022 191.738 139.596 193.445 138.742C195.152 137.804 196.176 137.164 196.517 136.822C196.944 136.481 197.2 136.396 197.285 136.566C197.37 136.737 197.328 137.036 197.157 137.462C197.072 137.718 196.602 138.273 195.749 139.126C194.896 139.98 193.573 140.79 191.781 141.558C189.989 142.241 187.6 142.582 184.613 142.582C181.968 142.582 179.45 142.113 177.061 141.174C174.757 140.236 172.453 139.169 170.149 137.974C167.93 136.78 165.584 135.713 163.109 134.774C160.72 133.836 158.117 133.366 155.301 133.366C151.632 133.366 148.474 134.134 145.829 135.67C143.269 137.206 141.306 139.084 139.941 141.302C138.576 143.521 137.893 145.654 137.893 147.702C137.893 150.86 138.917 153.761 140.965 156.406C143.098 158.966 146.512 160.246 151.205 160.246C153.68 160.246 155.941 159.692 157.989 158.582C160.122 157.388 161.786 155.852 162.981 153.974C164.261 152.097 164.901 150.134 164.901 148.086C164.901 147.574 164.688 146.934 164.261 146.166C163.92 145.398 163.664 145.014 163.493 145.014C163.493 145.014 163.322 145.185 162.981 145.526C162.64 145.782 162.17 145.91 161.573 145.91C161.061 145.91 160.506 145.74 159.909 145.398C159.397 145.057 159.141 144.502 159.141 143.734C159.141 143.052 159.354 142.54 159.781 142.198C160.293 141.772 160.848 141.558 161.445 141.558C162.64 141.558 163.749 142.07 164.773 143.094C165.797 144.118 166.309 145.697 166.309 147.83C166.309 151.756 164.816 154.998 161.829 157.558C158.842 160.118 155.301 161.398 151.205 161.398ZM236.019 167.798C240.286 167.798 242.419 169.846 242.419 173.942C242.419 177.1 241.694 180.342 240.243 183.67C238.792 186.913 236.83 189.9 234.355 192.63C231.88 195.276 229.192 197.452 226.291 199.158C223.39 200.78 220.446 201.59 217.459 201.59C215.155 201.59 213.235 201.036 211.699 199.926C210.078 198.732 209.267 196.812 209.267 194.166C209.267 191.692 209.992 188.961 211.443 185.974C212.894 182.902 214.856 180.001 217.331 177.27C219.891 174.54 222.75 172.278 225.907 170.486C229.15 168.694 232.52 167.798 236.019 167.798ZM237.427 169.59C235.976 169.59 234.27 170.23 232.307 171.51C230.344 172.79 228.339 174.454 226.291 176.502C224.243 178.55 222.323 180.769 220.531 183.158C218.824 185.462 217.416 187.724 216.307 189.942C215.283 192.161 214.771 194.038 214.771 195.574C214.771 197.281 215.24 198.476 216.179 199.158C217.118 199.756 218.184 200.054 219.379 200.054C221.342 200.054 223.56 199.244 226.035 197.622C228.51 195.916 230.899 193.782 233.203 191.222C235.507 188.662 237.384 185.974 238.835 183.158C240.371 180.257 241.139 177.612 241.139 175.222C241.139 173.004 240.755 171.51 239.987 170.742C239.219 169.974 238.366 169.59 237.427 169.59ZM239.731 182.774C240.158 182.774 240.328 182.945 240.243 183.286C240.243 183.542 240.03 183.67 239.603 183.67C239.262 183.67 238.75 184.14 238.067 185.078C237.47 185.932 236.915 186.828 236.403 187.766C235.891 188.705 235.635 189.217 235.635 189.302C235.635 191.265 236.36 192.246 237.811 192.246C239.176 192.246 240.712 191.606 242.419 190.326C244.211 189.046 245.918 187.596 247.539 185.974C249.246 184.268 250.611 182.774 251.635 181.494L252.659 182.39C251.55 183.67 250.142 185.206 248.435 186.998C246.728 188.705 244.936 190.241 243.059 191.606C241.182 192.886 239.432 193.526 237.811 193.526C236.446 193.526 235.507 193.228 234.995 192.63C234.483 192.033 234.227 190.966 234.227 189.43C234.227 187.382 234.91 185.761 236.275 184.566C237.726 183.372 238.878 182.774 239.731 182.774ZM257.516 201.59C253.505 201.59 250.86 200.694 249.58 198.902C248.3 197.025 247.66 195.062 247.66 193.014C247.66 189.516 248.556 186.273 250.348 183.286C252.14 180.214 254.444 177.484 257.26 175.094C260.076 172.705 262.977 170.87 265.964 169.59C269.036 168.225 271.767 167.542 274.156 167.542C275.863 167.542 277.228 167.798 278.252 168.31C279.276 168.737 279.788 169.676 279.788 171.126C279.788 172.492 278.977 173.942 277.356 175.478C275.735 177.014 273.687 178.508 271.212 179.958C268.737 181.324 266.135 182.604 263.404 183.798C260.759 184.908 258.327 185.804 256.108 186.486C253.889 187.169 252.268 187.51 251.244 187.51C251.244 187.51 251.244 187.297 251.244 186.87C251.244 186.358 251.244 186.102 251.244 186.102C252.012 186.188 253.335 185.932 255.212 185.334C257.175 184.737 259.351 183.969 261.74 183.03C264.129 182.006 266.433 180.854 268.652 179.574C270.956 178.294 272.833 176.929 274.284 175.478C275.82 174.028 276.588 172.62 276.588 171.254C276.588 170.572 276.375 169.974 275.948 169.462C275.607 168.95 274.967 168.694 274.028 168.694C272.663 168.694 270.999 169.377 269.036 170.742C267.159 172.022 265.239 173.729 263.276 175.862C261.313 177.996 259.479 180.257 257.772 182.646C256.065 185.036 254.657 187.34 253.548 189.558C252.524 191.692 252.012 193.484 252.012 194.934C252.012 196.641 252.524 197.921 253.548 198.774C254.572 199.628 256.065 200.054 258.028 200.054C261.441 200.054 264.641 199.244 267.628 197.622C270.7 195.916 273.473 193.953 275.948 191.734C278.423 189.43 280.513 187.297 282.22 185.334C283.927 183.286 285.079 181.964 285.676 181.366C285.676 181.366 285.804 181.494 286.06 181.75C286.401 182.006 286.572 182.134 286.572 182.134C285.975 182.817 284.823 184.182 283.116 186.23C281.409 188.278 279.276 190.497 276.716 192.886C274.156 195.276 271.255 197.324 268.012 199.03C264.769 200.737 261.271 201.59 257.516 201.59ZM277.612 153.078C276.588 154.102 275.521 154.614 274.412 154.614C273.388 154.529 272.62 154.188 272.108 153.59C271.34 152.737 271.084 151.798 271.34 150.774C271.596 149.75 272.065 148.94 272.748 148.342C273.687 147.318 274.711 146.806 275.82 146.806C276.929 146.806 277.783 147.105 278.38 147.702C279.148 148.556 279.361 149.494 279.02 150.518C278.764 151.542 278.295 152.396 277.612 153.078ZM292.46 153.078C291.436 154.102 290.369 154.614 289.26 154.614C288.151 154.529 287.34 154.188 286.828 153.59C286.06 152.822 285.761 151.884 285.932 150.774C286.188 149.665 286.657 148.854 287.34 148.342C288.449 147.404 289.559 146.934 290.668 146.934C291.777 146.849 292.631 147.105 293.228 147.702C293.996 148.556 294.209 149.494 293.868 150.518C293.612 151.542 293.143 152.396 292.46 153.078ZM326.335 122.87C327.274 123.041 328.426 123.126 329.791 123.126C331.242 123.126 332.394 123.041 333.247 122.87L288.703 184.95C287.338 186.998 286.015 188.918 284.735 190.71C283.455 192.502 282.431 194.081 281.663 195.446C280.81 196.726 280.383 197.75 280.383 198.518C280.383 199.116 280.639 199.542 281.151 199.798C281.578 200.054 282.218 200.182 283.071 200.182C285.034 200.182 287.21 199.5 289.599 198.134C291.988 196.684 294.335 194.892 296.639 192.758C299.028 190.625 301.204 188.534 303.167 186.486C305.215 184.438 306.836 182.774 308.031 181.494L308.927 182.262C307.818 183.457 306.282 185.121 304.319 187.254C302.356 189.388 300.095 191.564 297.535 193.782C295.06 195.916 292.458 197.75 289.727 199.286C287.082 200.822 284.479 201.59 281.919 201.59C280.554 201.59 279.402 201.206 278.463 200.438C277.439 199.67 276.927 198.561 276.927 197.11C276.927 196.172 277.268 194.977 277.951 193.526C278.634 192.076 279.487 190.582 280.511 189.046C281.45 187.425 282.388 185.974 283.327 184.694C284.18 183.329 284.863 182.305 285.375 181.622L326.335 122.87Z" fill="#E7CD78"/>
<g filter="url(#filter0_d_4013_1507)">
<mask id="path-3-inside-1_4013_1507" fill="white">
<path d="M41.8184 114.655C38.8904 140.889 43.8614 167.428 56.0312 190.534C68.201 213.639 86.9562 232.146 109.655 243.448C132.353 254.75 157.851 258.277 182.556 253.533C207.26 248.788 229.928 236.011 247.363 217L241.054 210.599C224.892 228.22 203.881 240.064 180.981 244.462C158.081 248.86 134.446 245.591 113.406 235.115C92.3653 224.638 74.9803 207.483 63.6995 186.065C52.4188 164.648 47.8109 140.048 50.525 115.73L41.8184 114.655Z"/>
</mask>
<path d="M41.8184 114.655C38.8904 140.889 43.8614 167.428 56.0312 190.534C68.201 213.639 86.9562 232.146 109.655 243.448C132.353 254.75 157.851 258.277 182.556 253.533C207.26 248.788 229.928 236.011 247.363 217L241.054 210.599C224.892 228.22 203.881 240.064 180.981 244.462C158.081 248.86 134.446 245.591 113.406 235.115C92.3653 224.638 74.9803 207.483 63.6995 186.065C52.4188 164.648 47.8109 140.048 50.525 115.73L41.8184 114.655Z" stroke="#E7CD78" stroke-width="6" shape-rendering="crispEdges" mask="url(#path-3-inside-1_4013_1507)"/>
</g>
<g filter="url(#filter1_d_4013_1507)">
<mask id="path-4-inside-2_4013_1507" fill="white">
<path d="M278.902 134.469C279.82 110.584 274.27 86.9153 262.898 66.2181C251.527 45.5209 234.8 28.646 214.666 17.557C194.532 6.46799 171.817 1.62096 149.166 3.57991C126.515 5.53887 104.859 14.2233 86.7168 28.6225L91.9973 35.9825C108.814 22.6351 128.888 14.5852 149.885 12.7693C170.881 10.9535 191.936 15.4464 210.599 25.7253C229.263 36.0042 244.767 51.6464 255.308 70.8316C265.849 90.0168 270.994 111.956 270.143 134.096L278.902 134.469Z"/>
</mask>
<path d="M278.902 134.469C279.82 110.584 274.27 86.9153 262.898 66.2181C251.527 45.5209 234.8 28.646 214.666 17.557C194.532 6.46799 171.817 1.62096 149.166 3.57991C126.515 5.53887 104.859 14.2233 86.7168 28.6225L91.9973 35.9825C108.814 22.6351 128.888 14.5852 149.885 12.7693C170.881 10.9535 191.936 15.4464 210.599 25.7253C229.263 36.0042 244.767 51.6464 255.308 70.8316C265.849 90.0168 270.994 111.956 270.143 134.096L278.902 134.469Z" stroke="#E7CD78" stroke-width="6" shape-rendering="crispEdges" mask="url(#path-4-inside-2_4013_1507)"/>
</g>
<defs>
<filter id="filter0_d_4013_1507" x="36.9999" y="114.655" width="214.364" height="148.931" filterUnits="userSpaceOnUse" color-interpolation-filters="sRGB">
<feFlood flood-opacity="0" result="BackgroundImageFix"/>
<feColorMatrix in="SourceAlpha" type="matrix" values="0 0 0 0 0 0 0 0 0 0 0 0 0 0 0 0 0 0 127 0" result="hardAlpha"/>
<feOffset dy="4"/>
<feGaussianBlur stdDeviation="2"/>
<feComposite in2="hardAlpha" operator="out"/>
<feColorMatrix type="matrix" values="0 0 0 0 0 0 0 0 0 0 0 0 0 0 0 0 0 0 0.25 0"/>
<feBlend mode="normal" in2="BackgroundImageFix" result="effect1_dropShadow_4013_1507"/>
<feBlend mode="normal" in="SourceGraphic" in2="effect1_dropShadow_4013_1507" result="shape"/>
</filter>
<filter id="filter1_d_4013_1507" x="82.7168" y="3.15533" width="200.283" height="139.313" filterUnits="userSpaceOnUse" color-interpolation-filters="sRGB">
<feFlood flood-opacity="0" result="BackgroundImageFix"/>
<feColorMatrix in="SourceAlpha" type="matrix" values="0 0 0 0 0 0 0 0 0 0 0 0 0 0 0 0 0 0 127 0" result="hardAlpha"/>
<feOffset dy="4"/>
<feGaussianBlur stdDeviation="2"/>
<feComposite in2="hardAlpha" operator="out"/>
<feColorMatrix type="matrix" values="0 0 0 0 0 0 0 0 0 0 0 0 0 0 0 0 0 0 0.25 0"/>
<feBlend mode="normal" in2="BackgroundImageFix" result="effect1_dropShadow_4013_1507"/>
<feBlend mode="normal" in="SourceGraphic" in2="effect1_dropShadow_4013_1507" result="shape"/>
</filter>
</defs>
</svg>
